<svg xmlns="http://www.w3.org/2000/svg" viewBox="0 0 1080 720" preserveAspectRatio="xMidYMid slice">
  <defs>
    <linearGradient id="sky" x1="0%" y1="0%" x2="0%" y2="100%">
      <stop offset="0%" stop-color="#5a7d3a"/>
      <stop offset="100%" stop-color="#678f42"/>
    </linearGradient>
    <radialGradient id="sun" cx="50%" cy="50%" r="50%">
      <stop offset="0%" stop-color="#fff9e6" stop-opacity="0.95"/>
      <stop offset="60%" stop-color="#ffe4a3" stop-opacity="0.5"/>
      <stop offset="100%" stop-color="#ffd47a" stop-opacity="0"/>
    </radialGradient>
  </defs>
  <rect width="1080" height="720" fill="url(#sky)"/>
  <circle cx="701" cy="120" r="120" fill="url(#sun)"/>
  <circle cx="701" cy="120" r="42" fill="#fff8dc" opacity="0.85"/>
  <path d="M 0,720 L 0,396 L 0,358 L 180,275 L 360,231 L 540,350 L 720,258 L 900,393 L 1080,251 L 1080,396 L 1080,720 Z" fill="#2a5124" opacity="0.7"/>
  <path d="M 0,720 L 0,489 L 0,429 L 154,454 L 308,461 L 462,454 L 616,465 L 770,381 L 924,477 L 1078,471 L 1080,489 L 1080,720 Z" fill="#22421d" opacity="0.85"/>
  <path d="M 0,720 L 0,590 L 0,531 L 135,504 L 270,548 L 405,495 L 540,505 L 675,545 L 810,506 L 945,588 L 1080,549 L 1080,590 L 1080,720 Z" fill="#1e3a1a"/>
  <rect x="0" y="0" width="1080" height="720" fill="url(#sky)" opacity="0"/>
  <text x="540" y="670" text-anchor="middle"
        font-family="Georgia, 'Times New Roman', serif" font-size="36" font-weight="600"
        fill="#fff" opacity="0.92" style="paint-order:stroke;stroke:#000;stroke-width:3px;stroke-opacity:0.45">
    Forest canopy
  </text>
</svg>