<svg xmlns="http://www.w3.org/2000/svg" viewBox="0 0 1080 720" preserveAspectRatio="xMidYMid slice">
  <defs>
    <linearGradient id="sky" x1="0%" y1="0%" x2="0%" y2="100%">
      <stop offset="0%" stop-color="#8a8a8a"/>
      <stop offset="100%" stop-color="#9e9e9e"/>
    </linearGradient>
    <radialGradient id="sun" cx="50%" cy="50%" r="50%">
      <stop offset="0%" stop-color="#fff9e6" stop-opacity="0.95"/>
      <stop offset="60%" stop-color="#ffe4a3" stop-opacity="0.5"/>
      <stop offset="100%" stop-color="#ffd47a" stop-opacity="0"/>
    </radialGradient>
  </defs>
  <rect width="1080" height="720" fill="url(#sky)"/>
  <circle cx="558" cy="210" r="120" fill="url(#sun)"/>
  <circle cx="558" cy="210" r="42" fill="#fff8dc" opacity="0.85"/>
  <path d="M 0,720 L 0,396 L 0,366 L 180,382 L 360,346 L 540,367 L 720,299 L 900,350 L 1080,305 L 1080,396 L 1080,720 Z" fill="#515151" opacity="0.7"/>
  <path d="M 0,720 L 0,489 L 0,381 L 154,374 L 308,474 L 462,373 L 616,363 L 770,384 L 924,485 L 1078,383 L 1080,489 L 1080,720 Z" fill="#424242" opacity="0.85"/>
  <path d="M 0,720 L 0,590 L 0,497 L 135,552 L 270,589 L 405,541 L 540,495 L 675,519 L 810,490 L 945,579 L 1080,511 L 1080,590 L 1080,720 Z" fill="#3a3a3a"/>
  <rect x="0" y="0" width="1080" height="720" fill="url(#sky)" opacity="0"/>
  <text x="540" y="670" text-anchor="middle"
        font-family="Georgia, 'Times New Roman', serif" font-size="36" font-weight="600"
        fill="#fff" opacity="0.92" style="paint-order:stroke;stroke:#000;stroke-width:3px;stroke-opacity:0.45">
    Rocky summit
  </text>
</svg>