<svg xmlns="http://www.w3.org/2000/svg" viewBox="0 0 1080 720" preserveAspectRatio="xMidYMid slice">
  <defs>
    <linearGradient id="sky" x1="0%" y1="0%" x2="0%" y2="100%">
      <stop offset="0%" stop-color="#4a7c34"/>
      <stop offset="100%" stop-color="#558e3b"/>
    </linearGradient>
    <radialGradient id="sun" cx="50%" cy="50%" r="50%">
      <stop offset="0%" stop-color="#fff9e6" stop-opacity="0.95"/>
      <stop offset="60%" stop-color="#ffe4a3" stop-opacity="0.5"/>
      <stop offset="100%" stop-color="#ffd47a" stop-opacity="0"/>
    </radialGradient>
  </defs>
  <rect width="1080" height="720" fill="url(#sky)"/>
  <circle cx="595" cy="130" r="120" fill="url(#sun)"/>
  <circle cx="595" cy="130" r="42" fill="#fff8dc" opacity="0.85"/>
  <path d="M 0,720 L 0,396 L 0,376 L 180,360 L 360,234 L 540,351 L 720,321 L 900,310 L 1080,379 L 1080,396 L 1080,720 Z" fill="#255124" opacity="0.7"/>
  <path d="M 0,720 L 0,489 L 0,438 L 154,391 L 308,438 L 462,392 L 616,444 L 770,363 L 924,439 L 1078,412 L 1080,489 L 1080,720 Z" fill="#1f421d" opacity="0.85"/>
  <path d="M 0,720 L 0,590 L 0,558 L 135,490 L 270,513 L 405,539 L 540,498 L 675,511 L 810,572 L 945,547 L 1080,562 L 1080,590 L 1080,720 Z" fill="#1b3a1a"/>
  <rect x="0" y="0" width="1080" height="720" fill="url(#sky)" opacity="0"/>
  <text x="540" y="670" text-anchor="middle"
        font-family="Georgia, 'Times New Roman', serif" font-size="36" font-weight="600"
        fill="#fff" opacity="0.92" style="paint-order:stroke;stroke:#000;stroke-width:3px;stroke-opacity:0.45">
    Old-growth forest
  </text>
</svg>