<svg xmlns="http://www.w3.org/2000/svg" viewBox="0 0 1080 720" preserveAspectRatio="xMidYMid slice">
  <defs>
    <linearGradient id="sky" x1="0%" y1="0%" x2="0%" y2="100%">
      <stop offset="0%" stop-color="#6ba3d6"/>
      <stop offset="100%" stop-color="#7bbbf6"/>
    </linearGradient>
    <radialGradient id="sun" cx="50%" cy="50%" r="50%">
      <stop offset="0%" stop-color="#fff9e6" stop-opacity="0.95"/>
      <stop offset="60%" stop-color="#ffe4a3" stop-opacity="0.5"/>
      <stop offset="100%" stop-color="#ffd47a" stop-opacity="0"/>
    </radialGradient>
  </defs>
  <rect width="1080" height="720" fill="url(#sky)"/>
  <circle cx="203" cy="157" r="120" fill="url(#sun)"/>
  <circle cx="203" cy="157" r="42" fill="#fff8dc" opacity="0.85"/>
  <path d="M 0,720 L 0,396 L 0,293 L 180,217 L 360,280 L 540,359 L 720,284 L 900,287 L 1080,390 L 1080,396 L 1080,720 Z" fill="#3e6ead" opacity="0.7"/>
  <path d="M 0,720 L 0,489 L 0,452 L 154,431 L 308,403 L 462,465 L 616,368 L 770,488 L 924,470 L 1078,373 L 1080,489 L 1080,720 Z" fill="#335a8e" opacity="0.85"/>
  <path d="M 0,720 L 0,590 L 0,556 L 135,539 L 270,507 L 405,543 L 540,500 L 675,528 L 810,526 L 945,529 L 1080,505 L 1080,590 L 1080,720 Z" fill="#2d4f7c"/>
  <rect x="0" y="0" width="1080" height="720" fill="url(#sky)" opacity="0"/>
  <text x="540" y="670" text-anchor="middle"
        font-family="Georgia, 'Times New Roman', serif" font-size="36" font-weight="600"
        fill="#fff" opacity="0.92" style="paint-order:stroke;stroke:#000;stroke-width:3px;stroke-opacity:0.45">
    River gorge view
  </text>
</svg>